<?xml version="1.0" standalone="no"?>
<!DOCTYPE svg PUBLIC "-//W3C//DTD SVG 1.1//EN" "http://www.w3.org/Graphics/SVG/1.1/DTD/svg11.dtd" >
<svg xmlns="http://www.w3.org/2000/svg">
<metadata></metadata>
<defs>
<font id="stripesregular" horiz-adv-x="1282" >
<font-face units-per-em="2048" ascent="1536" descent="-512" />
<missing-glyph horiz-adv-x="630" />
<glyph horiz-adv-x="2048" />
<glyph horiz-adv-x="2048" />
<glyph unicode="&#xd;" horiz-adv-x="2048" />
<glyph unicode=" "  horiz-adv-x="630" />
<glyph unicode="&#x09;" horiz-adv-x="630" />
<glyph unicode="&#xa0;" horiz-adv-x="630" />
<glyph unicode="!" horiz-adv-x="587" d="M160 0v268h270v-268h-270zM160 424v997h270v-997h-270z" />
<glyph unicode="&#x22;" horiz-adv-x="763" d="M68 1421h264l-47 -587h-172zM434 1421h262l-45 -587h-174z" />
<glyph unicode="#" horiz-adv-x="1101" d="M18 336l29 196h174l51 353h-174l29 194h176l37 267h203l-37 -267h201l36 267h205l-39 -267h174l-28 -194h-174l-52 -353h175l-29 -196h-176l-37 -260h-203l39 260h-203l-37 -260h-202l39 260h-177zM426 532h199l53 353h-201z" />
<glyph unicode="$" horiz-adv-x="1009" d="M57 508h234q0 -76 38 -123.5t101 -65.5v312q-53 12 -96.5 26.5t-93.5 42t-84.5 62.5t-57 88.5t-22.5 118.5q0 147 94.5 244t259.5 114v119h133v-119q162 -20 256 -125t94 -264h-235q0 60 -30 103.5t-85 60.5v-275q68 -16 117 -32.5t101.5 -45t85.5 -64t54 -90.5t21 -124 q0 -157 -100.5 -257.5t-278.5 -119.5v-119h-133v121q-161 20 -267 128t-106 284zM311 975q0 -40 28 -66.5t91 -48.5v244q-56 -12 -87.5 -45.5t-31.5 -83.5zM563 315q65 11 105.5 46.5t40.5 93.5q0 54 -29 87.5t-117 59.5v-287z" />
<glyph unicode="%" horiz-adv-x="1669" d="M61 1063q0 150 103.5 254t255.5 104q153 0 255.5 -104t102.5 -254q0 -149 -102.5 -252.5t-255.5 -103.5q-152 0 -255.5 103.5t-103.5 252.5zM266 1063q0 -67 45.5 -115.5t108.5 -48.5q64 0 109.5 48t45.5 116t-45.5 116t-109.5 48q-63 0 -108.5 -48.5t-45.5 -115.5z M334 0l780 1421h219l-780 -1421h-219zM889 358q0 149 103 254t255 105q151 0 255 -105t104 -254q0 -150 -103.5 -254t-255.5 -104q-153 0 -255.5 104t-102.5 254zM1092 358q0 -68 45.5 -115.5t109.5 -47.5q63 0 109.5 48t46.5 115t-46.5 115.5t-109.5 48.5q-64 0 -109.5 -48 t-45.5 -116z" />
<glyph unicode="&#x26;" horiz-adv-x="1331" d="M68 487q0 120 58 226t167 188q-62 100 -62 197q0 153 105.5 256.5t267.5 103.5q161 0 260 -101t99 -259v-29h-248v31q0 48 -29 84.5t-86 36.5q-56 0 -87.5 -36.5t-31.5 -82.5q0 -59 60 -133l407 -518q34 100 21 266h239q19 -300 -92 -477l189 -240h-308l-53 68 q-145 -93 -328 -93q-149 0 -275 68.5t-199.5 186.5t-73.5 257zM322 487q0 -111 86.5 -191.5t207.5 -80.5q94 0 177 47l-353 445q-118 -95 -118 -220z" />
<glyph unicode="'" horiz-adv-x="399" d="M68 1421h262l-45 -587h-174z" />
<glyph unicode="(" horiz-adv-x="665" d="M82 690q0 262 97 514.5t255 413.5h215q-148 -193 -229.5 -431.5t-81.5 -496.5t81.5 -496.5t229.5 -431.5h-215q-158 161 -255 413.5t-97 514.5z" />
<glyph unicode=")" horiz-adv-x="665" d="M18 -238q147 193 228.5 431.5t81.5 496.5t-81.5 496.5t-228.5 431.5h213q159 -162 256 -414.5t97 -513.5t-97 -513.5t-256 -414.5h-213z" />
<glyph unicode="*" horiz-adv-x="800" d="M55 1038v158l215 -6l-112 188l137 78l104 -192l105 192l137 -78l-113 -188l217 6v-158l-217 4l113 -184l-137 -80l-105 191l-104 -191l-135 80l110 184z" />
<glyph unicode="+" horiz-adv-x="1073" d="M76 440v252h325v334h271v-334h325v-252h-325v-336h-271v336h-325z" />
<glyph unicode="," horiz-adv-x="479" d="M94 0v289h291v-324q0 -134 -72 -211.5t-192 -89.5v127q62 13 94.5 58t32.5 114v37h-154z" />
<glyph unicode="-" horiz-adv-x="677" d="M61 442v252h555v-252h-555z" />
<glyph unicode="." horiz-adv-x="479" d="M94 0v289h291v-289h-291z" />
<glyph unicode="/" horiz-adv-x="690" d="M4 0l432 1524h281l-432 -1524h-281z" />
<glyph unicode="0" horiz-adv-x="1533" d="M72 717q0 204 89 373t249 267.5t358 98.5q197 0 356.5 -98.5t248.5 -267.5t89 -373q0 -205 -89 -374.5t-248.5 -268.5t-356.5 -99q-198 0 -358 99t-249 268.5t-89 374.5zM344 717q0 -200 124 -343t300 -143q174 0 298 143t124 343q0 198 -124 340.5t-298 142.5 q-116 0 -213.5 -65.5t-154 -176.5t-56.5 -241z" />
<glyph unicode="1" horiz-adv-x="790" d="M78 1169v252h434v-1421h-270v1169h-164z" />
<glyph unicode="2" horiz-adv-x="1107" d="M20 0l539 631q120 143 155.5 213t35.5 157q0 30 -11.5 60.5t-34.5 59.5t-65 47t-96 18q-108 0 -164.5 -67.5t-56.5 -166.5h-271q0 221 141 362.5t351 141.5q135 0 245 -61.5t171 -165.5t61 -228q0 -101 -29 -185.5t-82.5 -160t-154.5 -188.5l-193 -215h451v-252h-992z " />
<glyph unicode="3" horiz-adv-x="1171" d="M31 397h276q24 -71 92.5 -112t171.5 -41q119 0 189.5 69.5t70.5 186.5q0 118 -69.5 185.5t-196.5 76.5q-99 7 -250 -12l279 419h-471v252h956l-340 -473q168 -31 265.5 -147.5t97.5 -300.5q0 -229 -150.5 -378t-380.5 -149q-221 0 -368.5 123.5t-171.5 300.5z" />
<glyph unicode="4" horiz-adv-x="1116" d="M31 291v237l557 893h315v-893h152v-237h-152v-291h-252v291h-620zM299 528h352v564z" />
<glyph unicode="5" horiz-adv-x="1189" d="M55 395h275q23 -77 94 -123.5t170 -46.5q118 0 189 76.5t71 198.5q0 129 -77.5 200.5t-182.5 71.5q-71 0 -136.5 -33.5t-107.5 -95.5h-268l176 778h762v-252h-557l-51 -200q101 53 215 53q99 0 190 -39t159.5 -106.5t109 -166t40.5 -210.5q0 -229 -151 -378t-381 -149 q-124 0 -234.5 44t-185.5 124q-101 107 -119 254z" />
<glyph unicode="6" horiz-adv-x="1159" d="M68 492q0 151 120 362l312 567h309l-238 -430q113 7 213 -31.5t168.5 -107.5t108 -163t39.5 -197q0 -141 -67.5 -259.5t-186.5 -188t-264 -69.5q-144 0 -262.5 69.5t-185 188t-66.5 259.5zM336 492q0 -104 72.5 -178t173.5 -74q103 0 175 74t72 178q0 106 -72 179.5 t-175 73.5q-102 0 -174 -74t-72 -179z" />
<glyph unicode="7" horiz-adv-x="1071" d="M35 1169v252h1020l-649 -1421h-287l536 1169h-620z" />
<glyph unicode="8" horiz-adv-x="1122" d="M59 477q0 127 61 229t165 164q-101 91 -101 230q0 140 110.5 248t266.5 108t266.5 -108t110.5 -248q0 -141 -102 -230q106 -62 166.5 -164t60.5 -229q0 -136 -66 -251.5t-181.5 -183t-254.5 -67.5q-140 0 -255.5 67.5t-181 183t-65.5 251.5zM330 477q0 -101 68 -172.5 t163 -71.5t162.5 71.5t67.5 172.5q0 100 -67.5 171t-162.5 71t-163 -71t-68 -171zM438 1085q0 -54 36 -90.5t87 -36.5t87 36.5t36 90.5q0 52 -36 88.5t-87 36.5t-87 -36.5t-36 -88.5z" />
<glyph unicode="9" horiz-adv-x="1157" d="M57 938q0 141 67.5 259.5t186.5 187.5t264 69q218 0 366.5 -150.5t148.5 -365.5q0 -147 -115 -352l-322 -586h-309l242 438q-113 -7 -213 31.5t-168.5 108t-108 163.5t-39.5 197zM328 938q0 -106 72 -180t175 -74q102 0 174 74.5t72 179.5q0 104 -72.5 179t-173.5 75 q-102 0 -174.5 -74.5t-72.5 -179.5z" />
<glyph unicode=":" horiz-adv-x="501" d="M106 0v289h291v-289h-291zM106 729v289h291v-289h-291z" />
<glyph unicode=";" horiz-adv-x="501" d="M106 0v289h291v-324q0 -134 -72 -211.5t-192 -89.5v127q62 13 93.5 58t31.5 114v37h-152zM106 729v289h291v-289h-291z" />
<glyph unicode="&#x3c;" horiz-adv-x="919" d="M63 430v268l793 367v-279l-526 -221l526 -223v-276z" />
<glyph unicode="=" horiz-adv-x="1034" d="M76 211v250h882v-250h-882zM76 670v252h882v-252h-882z" />
<glyph unicode="&#x3e;" horiz-adv-x="921" d="M63 66v276l527 223l-527 221v279l795 -367v-268z" />
<glyph unicode="?" horiz-adv-x="1130" d="M68 991q0 208 133 335.5t358 127.5q222 0 349.5 -115.5t127.5 -300.5q0 -116 -61.5 -198.5t-177.5 -159.5q-71 -47 -101 -95t-30 -114v-47h-248v47q0 62 14 115.5t33 90t52.5 72.5t58.5 56t65 49q70 50 98.5 90.5t28.5 93.5q0 75 -56 121.5t-153 46.5q-107 0 -165 -60 t-58 -155h-268zM406 0v268h270v-268h-270z" />
<glyph unicode="@" horiz-adv-x="1525" d="M63 713q0 206 98 376.5t265.5 267.5t366.5 97q102 0 198 -23.5t182 -73t150 -120.5t101.5 -173t37.5 -222q0 -132 -52.5 -245t-144.5 -179t-200 -66q-70 0 -123.5 30t-83.5 81q-89 -115 -211 -115q-131 0 -195 116.5t-14 285.5q39 137 143 231t212 94q104 0 149 -86 l16 53h185l-123 -397q-16 -51 1 -78.5t52 -27.5q76 0 131.5 90t55.5 207q0 88 -27 161t-72 123t-105.5 84.5t-126.5 50t-136 15.5q-143 0 -264.5 -74.5t-192 -203t-70.5 -279.5q0 -155 71.5 -282t197.5 -199t280 -72q123 0 228.5 41.5t173.5 111.5h243q-214 -340 -645 -340 q-209 0 -381 95.5t-271.5 265.5t-99.5 379zM625 593.5q16 -50.5 61 -50.5q46 0 94.5 50.5t71.5 121.5q23 72 7 122t-62 50q-45 0 -93.5 -49t-72.5 -123q-22 -71 -6 -121.5z" />
<glyph unicode="A" d="M127 0v942q0 109 37 204.5t106 164.5q145 145 371 145q228 0 373 -145q69 -69 106 -164.5t37 -204.5v-942h-270v397h-490v-397h-270zM397 657h490v291q0 114 -65.5 179t-180.5 65q-114 0 -179 -65t-65 -179v-291z" />
<glyph unicode="B" horiz-adv-x="1333" d="M131 0v1421h655q210 0 319 -101.5t109 -283.5q0 -178 -139 -278q93 -48 144 -134.5t51 -205.5q0 -191 -121 -304.5t-326 -113.5h-692zM401 248h385q89 0 148 42t59 138q0 89 -55 137.5t-158 48.5h-379v-366zM401 862h385q70 0 118 44.5t48 113.5q0 71 -45 113.5 t-121 42.5h-385v-314z" />
<glyph unicode="C" horiz-adv-x="1449" d="M68 717q0 205 90.5 375t248.5 268t349 98q239 0 409.5 -126.5t237.5 -346.5h-293q-49 101 -142 163t-212 62q-114 0 -210.5 -67t-152 -180.5t-55.5 -245.5q0 -133 55.5 -247t152 -181.5t210.5 -67.5q117 0 210.5 64.5t143.5 165.5h291q-68 -219 -239.5 -347.5 t-405.5 -128.5q-143 0 -270.5 58t-219 156.5t-145 236.5t-53.5 291z" />
<glyph unicode="D" horiz-adv-x="1366" d="M131 0v1421h526q296 0 468.5 -191t172.5 -519q0 -325 -174.5 -518t-466.5 -193h-526zM401 252h256q67 0 122 17t92.5 44t66.5 66.5t45.5 79.5t27 87.5t14 86.5t3.5 80q0 68 -9 128t-34 122t-65 106t-107.5 72t-155.5 28h-256v-917z" />
<glyph unicode="E" horiz-adv-x="1157" d="M127 453v516q0 208 116 330t332 122h502v-266h-499q-97 0 -139 -41t-42 -139v-137h576v-252h-576v-137q0 -98 42 -140.5t139 -42.5h499v-266h-502q-215 0 -331.5 122t-116.5 331z" />
<glyph unicode="F" horiz-adv-x="1060" d="M127 0v969q0 208 116 330t330 122h435v-266h-433q-97 0 -137.5 -41t-40.5 -139v-141h504v-252h-504v-582h-270z" />
<glyph unicode="G" horiz-adv-x="1513" d="M68 717q0 205 91 375t249.5 268t349.5 98q235 0 406 -126t239 -347h-291q-53 104 -144 164.5t-210 60.5q-116 0 -213 -67t-152 -180.5t-55 -245.5q0 -133 55 -247t152 -181.5t213 -67.5q147 0 252.5 91.5t136.5 226.5h-352v252h649q1 -20 1 -39q0 -162 -45 -299 q-49 -154 -140.5 -258t-221 -162t-280.5 -58q-143 0 -271 58t-219.5 156.5t-145.5 236.5t-54 291z" />
<glyph unicode="H" horiz-adv-x="1310" d="M131 0v1421h272v-569h506v569h271v-1421h-271v600h-506v-600h-272z" />
<glyph unicode="I" horiz-adv-x="542" d="M137 0v1421h271v-1421h-271z" />
<glyph unicode="J" horiz-adv-x="878" d="M35 0v266h268q95 0 136.5 44t41.5 143v968h271v-972q0 -208 -116 -328.5t-331 -120.5h-270z" />
<glyph unicode="K" horiz-adv-x="1327" d="M131 0v1421h272v-573l535 573h373l-578 -594l602 -827h-352l-440 631l-140 -146v-485h-272z" />
<glyph unicode="L" horiz-adv-x="1038" d="M127 449v972h270v-968q0 -99 41 -143t137 -44h429v-266h-431q-215 0 -330.5 120.5t-115.5 328.5z" />
<glyph unicode="M" horiz-adv-x="2039" d="M127 0v944q0 217 145 364.5t369 147.5q116 0 213.5 -48.5t165.5 -135.5q66 86 165 135t214 49q149 0 268 -68.5t183.5 -185t64.5 -258.5v-944h-270v948q0 103 -69 173.5t-177 70.5q-110 0 -176 -70t-66 -174v-948h-272v948q0 103 -68 173.5t-176 70.5q-110 0 -178 -70 t-68 -174v-948h-268z" />
<glyph unicode="N" d="M127 0v942q0 109 37 204.5t106 164.5q145 145 371 145q228 0 373 -145q69 -69 106 -164.5t37 -204.5v-942h-270v948q0 114 -65.5 179t-180.5 65q-114 0 -179 -65t-65 -179v-948h-270z" />
<glyph unicode="O" horiz-adv-x="1525" d="M68 717q0 204 89 373t249 267.5t358 98.5q197 0 356.5 -98.5t248.5 -267.5t89 -373q0 -205 -89 -374.5t-248.5 -268.5t-356.5 -99q-198 0 -358 99t-249 268.5t-89 374.5zM340 717q0 -200 124 -343t300 -143q174 0 298 143t124 343q0 198 -124 340.5t-298 142.5 q-116 0 -213.5 -65.5t-154 -176.5t-56.5 -241z" />
<glyph unicode="P" horiz-adv-x="1249" d="M131 0v1421h598q221 0 345 -123.5t124 -334.5q0 -200 -127 -327.5t-336 -127.5h-334v-508h-270zM401 756h326q96 0 148.5 51t52.5 156q0 206 -201 206h-326v-413z" />
<glyph unicode="Q" horiz-adv-x="1523" d="M68 717q0 204 88.5 373t248 267.5t357.5 98.5q197 0 356.5 -98.5t248.5 -267.5t89 -373q0 -277 -157.5 -480t-407.5 -249v-228h-258v228q-250 46 -407.5 249t-157.5 480zM338 717q0 -162 81.5 -291.5t213.5 -175.5v196h258v-196q132 46 213.5 175.5t81.5 291.5 q0 130 -57 241.5t-155 176.5t-212 65t-212 -65t-155 -176.5t-57 -241.5z" />
<glyph unicode="R" horiz-adv-x="1366" d="M131 0v1421h649q224 0 356 -113t132 -311q0 -231 -199 -323q156 -86 156 -303v-199q0 -37 10 -88.5t22 -83.5h-274q-29 71 -29 156v217q0 91 -44.5 133.5t-139.5 42.5h-369v-549h-270zM401 793h385q16 0 36 2.5t53 14t58.5 30.5t44.5 56t19 87q0 22 -1.5 38t-13 47 t-32 50t-65 35t-105.5 16h-379v-376z" />
<glyph unicode="S" horiz-adv-x="1325" d="M76 471h270q0 -80 49 -138t118 -84t144 -26q83 0 152.5 19t117.5 63.5t48 108.5q0 70 -72.5 114.5t-263.5 81.5q-64 12 -112.5 24t-106.5 31t-99.5 41t-83.5 55t-68 72.5t-42 93t-16 117.5q0 184 149.5 299t396.5 115q135 0 242.5 -41t171.5 -108.5t97.5 -149 t33.5 -168.5h-270q0 94 -74.5 154.5t-200.5 60.5q-115 0 -195.5 -43t-80.5 -121q0 -70 69 -106t244 -72q112 -22 188.5 -44t150 -57t117 -79.5t69.5 -110t26 -151.5q0 -205 -159.5 -326t-428.5 -121q-86 0 -168 18.5t-157 58t-132 96.5t-90.5 140.5t-33.5 182.5z" />
<glyph unicode="T" horiz-adv-x="1097" d="M33 1169v252h1032v-252h-381v-1169h-270v1169h-381z" />
<glyph unicode="U" d="M127 489v932h270v-936q0 -115 65 -180t179 -65q116 0 181 65t65 180v936h270v-932q0 -224 -143 -370q-147 -144 -373 -144q-108 0 -204 37.5t-167 106.5q-143 146 -143 370z" />
<glyph unicode="V" horiz-adv-x="1236" d="M6 1421h287l325 -1095l324 1095h287l-465 -1421h-291z" />
<glyph unicode="W" horiz-adv-x="2039" d="M127 487v934h268v-936q0 -104 68 -174.5t178 -70.5q108 0 176 70.5t68 174.5v936h272v-936q0 -103 67.5 -174t174.5 -71q108 0 177 71t69 174v936h270v-934q0 -142 -64.5 -258.5t-183.5 -185t-268 -68.5q-115 0 -214 49.5t-165 135.5q-68 -87 -165.5 -136t-213.5 -49 q-224 0 -369 147.5t-145 364.5z" />
<glyph unicode="X" horiz-adv-x="1286" d="M129 0v365q0 243 166 358q-166 115 -166 358v340h270v-329q0 -114 64.5 -179t179.5 -65t179.5 65t64.5 179v329h270v-340q0 -242 -164 -358q164 -116 164 -358v-365h-270v352q0 114 -64.5 179t-179.5 65t-179.5 -65t-64.5 -179v-352h-270z" />
<glyph unicode="Y" horiz-adv-x="1255" d="M113 1028v393h272v-399q0 -116 64.5 -180t179.5 -64q114 0 178.5 64.5t64.5 179.5v399h271v-393q0 -110 -37.5 -206t-106.5 -165q-99 -99 -235 -129v-528h-272v528q-138 31 -236 129q-69 69 -106 165t-37 206z" />
<glyph unicode="Z" horiz-adv-x="1126" d="M51 0v242l688 927h-665v252h983v-239l-688 -930h704v-252h-1022z" />
<glyph unicode="[" horiz-adv-x="649" d="M131 -248v1925h492v-221h-250v-1483h250v-221h-492z" />
<glyph unicode="\" horiz-adv-x="692" d="M-27 1524h283l430 -1524h-280z" />
<glyph unicode="]" horiz-adv-x="690" d="M47 -27h260v1483h-260v221h512v-1925h-512v221z" />
<glyph unicode="^" horiz-adv-x="1134" d="M68 528l366 893h266l367 -893h-270l-230 625l-229 -625h-270z" />
<glyph unicode="_" horiz-adv-x="1650" d="M-4 -143h1659v-252h-1659v252z" />
<glyph unicode="`" horiz-adv-x="854" d="M152 1481h301l190 -289h-199z" />
<glyph unicode="a" horiz-adv-x="1191" d="M63 322q0 69 23.5 122.5t61.5 87t96 57t117 34.5t135 18q75 7 123 14.5t92 20.5t65 35t21 53q0 43 -52.5 71.5t-140.5 28.5q-79 0 -146 -35t-85 -98h-271q21 153 156.5 251.5t339.5 98.5q88 0 160 -16t119 -40.5t82 -59t53.5 -67t29.5 -69.5t14 -61t3 -47v-549 q0 -81 31 -172h-248q-18 41 -27 98q-112 -118 -323 -118q-85 0 -161.5 21.5t-136.5 63t-95.5 108t-35.5 149.5zM336 319q0 -45 48.5 -72.5t129.5 -27.5q130 0 211.5 47.5t81.5 143.5v98q-75 -48 -256 -68q-108 -11 -161.5 -38.5t-53.5 -82.5z" />
<glyph unicode="b" horiz-adv-x="1241" d="M96 526v998h273v-570q117 123 307 123q137 0 253 -74t183.5 -201t67.5 -276q0 -152 -68.5 -277.5t-193 -199.5t-279.5 -74q-156 0 -281 74t-193.5 199.5t-68.5 277.5zM369 524q0 -123 79 -210t191 -87q113 0 191.5 86t78.5 211q0 130 -78.5 216.5t-191.5 86.5 q-112 0 -191 -88.5t-79 -214.5z" />
<glyph unicode="c" horiz-adv-x="1169" d="M61 526q0 151 69.5 278t195 202t280.5 75q191 0 326.5 -101.5t181.5 -279.5h-289q-29 57 -88.5 95.5t-130.5 38.5q-112 0 -191 -91t-79 -219q0 -125 79 -214t191 -89q73 0 133.5 38.5t87.5 96.5h289q-46 -179 -181.5 -280t-328.5 -101q-155 0 -280.5 74t-195 200 t-69.5 277z" />
<glyph unicode="d" horiz-adv-x="1239" d="M61 526q0 149 68 276t184 201t252 74q189 0 309 -123v570h271v-998q0 -152 -68.5 -277.5t-193 -199.5t-279.5 -74q-156 0 -281 74t-193.5 199.5t-68.5 277.5zM334 524q0 -125 78.5 -211t191.5 -86q112 0 191 87t79 210q0 126 -79 214.5t-191 88.5q-113 0 -191.5 -86.5 t-78.5 -216.5z" />
<glyph unicode="e" horiz-adv-x="1198" d="M61 526q0 150 73 278t197.5 202.5t270.5 74.5q117 0 219.5 -45t176.5 -127q75 -83 112 -209q27 -92 27 -196q0 -40 -4 -82h-797q26 -97 97.5 -153t166.5 -56q71 0 131 31t92 92h289q-47 -164 -182 -262.5t-328 -98.5q-146 0 -270.5 73.5t-197.5 200.5t-73 277zM340 643 h524q-25 92 -96 146.5t-168 54.5q-92 0 -161.5 -54t-98.5 -147z" />
<glyph unicode="f" horiz-adv-x="638" d="M115 -2v1040q0 219 125 350q106 109 278 109q33 0 68 -4v-254q-15 1 -29 1q-78 0 -121 -38q-50 -45 -51 -151h190v-240h-190v-813h-270z" />
<glyph unicode="g" horiz-adv-x="1253" d="M61 526q0 152 68.5 278.5t193.5 201.5t281 75q155 0 279.5 -75t193 -201.5t68.5 -278.5v-473q0 -263 -147 -416t-400 -153q-193 0 -337.5 102t-174.5 267h295q24 -58 88 -87.5t129 -29.5q138 0 207 83.5t69 229.5v47q-122 -119 -307 -119q-137 0 -253.5 73.5t-184.5 200 t-68 275.5zM334 524q0 -125 78.5 -211t191.5 -86q112 0 191 87t79 210q0 126 -79 214.5t-191 88.5q-113 0 -191.5 -86.5t-78.5 -216.5z" />
<glyph unicode="h" horiz-adv-x="1181" d="M123 0v1524h272v-525q109 82 242 82q193 0 311.5 -128t118.5 -337v-616h-270v616q0 22 -3.5 44.5t-15.5 52t-32 51.5t-58 37.5t-88 15.5q-91 0 -148 -56t-57 -145v-616h-272z" />
<glyph unicode="i" horiz-adv-x="528" d="M129 0v1055h270v-1055h-270zM129 1169v252h270v-252h-270z" />
<glyph unicode="j" horiz-adv-x="489" d="M-51 -225q18 -2 35 -2q58 0 88 23q39 28 39 106v1153h272v-1184q0 -201 -114 -283q-84 -61 -219 -61q-47 0 -101 8v240zM111 1169v252h272v-252h-272z" />
<glyph unicode="k" horiz-adv-x="1153" d="M123 0v1524h272v-867h150q115 0 171 66.5t56 163.5v168h272v-215q0 -104 -47 -187t-133 -125q87 -44 133.5 -126t46.5 -187v-215h-272v170q0 97 -56 162t-171 65h-150v-397h-272z" />
<glyph unicode="l" horiz-adv-x="600" d="M106 442v1082h273v-1082q-1 -110 49 -155q44 -40 129 -40q11 0 23 1v-246q-37 -4 -72 -4q-175 0 -278 101q-124 121 -124 343z" />
<glyph unicode="m" horiz-adv-x="1845" d="M115 0v610q0 204 131 337.5t344 133.5q105 0 191.5 -39t144.5 -110q61 70 148 109.5t188 39.5q218 0 343.5 -130t125.5 -341v-610h-271v616q0 22 -3 44t-15.5 52t-32.5 52t-58 37.5t-89 15.5q-90 0 -147.5 -56t-57.5 -145v-616h-271v616q0 22 -3 44t-15 52t-32 52 t-57.5 37.5t-88.5 15.5q-91 0 -148 -56t-57 -145v-616h-270z" />
<glyph unicode="n" horiz-adv-x="1173" d="M115 0v610q0 204 131.5 337.5t343.5 133.5q218 0 343.5 -130t125.5 -341v-610h-271v616q0 22 -3 44t-15.5 52t-32.5 52t-58 37.5t-89 15.5q-90 0 -147.5 -56t-57.5 -145v-616h-270z" />
<glyph unicode="o" horiz-adv-x="1185" d="M61 526q0 155 71.5 282.5t193 200t266.5 72.5t267 -72.5t193.5 -200.5t71.5 -282t-71.5 -281t-193.5 -198.5t-267 -71.5t-266.5 71.5t-193 198.5t-71.5 281zM332 524q0 -131 75.5 -216t184.5 -85t184.5 85t75.5 216q0 135 -75.5 222.5t-184.5 87.5t-184.5 -87.5 t-75.5 -222.5z" />
<glyph unicode="p" horiz-adv-x="1241" d="M96 -469v999q0 151 68.5 276.5t193.5 200t281 74.5q155 0 279.5 -74.5t193 -200t68.5 -276.5q0 -150 -67.5 -277.5t-183.5 -201.5t-253 -74q-187 0 -307 123v-569h-273zM369 530q0 -126 79 -214.5t191 -88.5q113 0 191.5 87.5t78.5 215.5q0 127 -78.5 212t-191.5 85 q-112 0 -191 -87t-79 -210z" />
<glyph unicode="q" horiz-adv-x="1239" d="M61 530q0 151 68.5 276.5t193.5 200t281 74.5q155 0 279.5 -74.5t193 -200t68.5 -276.5v-999h-271v569q-123 -123 -309 -123q-136 0 -252 74t-184 201.5t-68 277.5zM334 530q0 -128 78.5 -215.5t191.5 -87.5q112 0 191 88.5t79 214.5q0 123 -79 210t-191 87 q-113 0 -191.5 -85t-78.5 -212z" />
<glyph unicode="r" horiz-adv-x="745" d="M123 0v1055h258v-105q63 78 153 109q60 21 124 21q31 0 63 -5v-262q-34 4 -65 4q-131 0 -195 -69q-68 -70 -68 -230v-518h-270z" />
<glyph unicode="s" horiz-adv-x="1077" d="M51 344h275q26 -62 91 -92.5t134 -30.5q84 0 137 24.5t53 69.5q0 46 -43 69t-178 44q-49 8 -84.5 14.5t-84.5 19.5t-84 28t-72.5 39t-61 53.5t-38.5 70.5t-15 90q0 64 28 123t82 108t142 78t198 29q181 0 306 -90t151 -239h-280q-13 39 -59 63.5t-118 24.5 q-87 0 -131.5 -25.5t-44.5 -58.5q0 -38 49.5 -57.5t159.5 -36.5q73 -12 125.5 -23.5t107.5 -30t91.5 -42t67 -56.5t45 -77.5t14.5 -100.5q0 -157 -130 -257t-333 -100q-202 0 -338.5 100t-161.5 269z" />
<glyph unicode="t" horiz-adv-x="651" d="M109 444v879h270v-268h190v-240h-190v-373q0 -108 50 -154q44 -41 130 -41q11 0 23 1v-246q-37 -4 -72 -4q-176 0 -278 102q-124 122 -123 344z" />
<glyph unicode="u" horiz-adv-x="1173" d="M115 446v609h270v-617q0 -22 3.5 -44t15.5 -51.5t32.5 -51.5t58.5 -37.5t89 -15.5q89 0 146.5 56t57.5 144v617h271v-609q0 -204 -131.5 -337.5t-343.5 -133.5q-218 0 -343.5 130t-125.5 341z" />
<glyph unicode="v" horiz-adv-x="1091" d="M2 1055h283l262 -787l264 787h279l-398 -1055h-291z" />
<glyph unicode="w" horiz-adv-x="1845" d="M115 446v609h270v-617q0 -22 3.5 -44t15.5 -51.5t32 -51.5t58 -37.5t88 -15.5q91 0 147.5 55.5t56.5 144.5v617h271v-617q0 -22 3 -44t15.5 -51.5t32.5 -51.5t58 -37.5t89 -15.5q90 0 147.5 55.5t57.5 144.5v617h271v-609q0 -204 -132 -338.5t-344 -134.5 q-210 0 -337 150q-62 -71 -148 -110.5t-188 -39.5q-217 0 -342 130.5t-125 342.5z" />
<glyph unicode="x" horiz-adv-x="1124" d="M113 0v193q0 216 135 335q-135 119 -135 336v191h270v-205q0 -89 50 -145t128 -56q80 0 130 56t50 145v205h271v-191q0 -209 -146 -336q146 -127 146 -335v-193h-271v207q0 89 -50 145t-130 56q-78 0 -128 -56t-50 -145v-207h-270z" />
<glyph unicode="y" horiz-adv-x="1171" d="M115 438v617h270v-617q0 -22 3.5 -44.5t15.5 -53.5t32 -53.5t58 -39t88 -16.5q90 0 147 58.5t57 148.5v617h271v-1098q0 -214 -128.5 -343.5t-340.5 -129.5q-174 0 -302.5 103.5t-156.5 265.5h281q12 -57 59.5 -87t118.5 -30q102 0 150 59.5t48 143.5v122 q-102 -86 -241 -86q-193 0 -311.5 128t-118.5 335z" />
<glyph unicode="z" horiz-adv-x="1009" d="M43 0v233l557 578h-534v244h880v-242l-547 -569h566v-244h-922z" />
<glyph unicode="{" horiz-adv-x="684" d="M39 608v195q199 0 199 225v256q0 192 105.5 280.5t295.5 69.5v-198q-80 6 -119 -39.5t-39 -124.5v-268q0 -226 -155 -297q155 -77 155 -299v-269q0 -79 39 -124.5t119 -39.5v-200q-190 -18 -295.5 71.5t-105.5 282.5v256q0 223 -199 223z" />
<glyph unicode="|" horiz-adv-x="548" d="M139 0v1524h271v-1524h-271z" />
<glyph unicode="}" horiz-adv-x="684" d="M47 -25q78 -6 117 39.5t39 124.5v269q0 222 155 299q-155 71 -155 297v268q0 79 -39 124.5t-117 39.5v198q188 19 293.5 -69.5t105.5 -280.5v-256q0 -225 199 -225v-195q-199 0 -199 -223v-256q0 -193 -105.5 -282.5t-293.5 -71.5v200z" />
<glyph unicode="~" horiz-adv-x="882" d="M82 1243q15 103 71 172.5t152 69.5q65 0 157.5 -38t125.5 -38q34 0 55 20.5t33 65.5h125q-13 -102 -68 -173t-145 -71q-66 0 -160 38t-129 38q-72 0 -92 -84h-125z" />
<glyph unicode="&#xa1;" horiz-adv-x="587" d="M160 0v999h270v-999h-270zM160 1155v268h270v-268h-270z" />
<glyph unicode="&#xa2;" horiz-adv-x="1095" d="M61 535q0 234 141.5 389t358.5 155q30 0 88 -8l68 221h139l-80 -260q95 -47 162 -133.5t96 -200.5h-248q-25 63 -79 107l-179 -584q24 -4 37 -4q77 0 136.5 44t89.5 120h245q-40 -177 -167 -284t-308 -107q-45 0 -100 10l-68 -225h-139l82 268q-127 65 -201 195.5 t-74 296.5zM307 535q0 -80 27 -147t74 -109l174 571h-17q-112 0 -185 -89t-73 -226z" />
<glyph unicode="&#xa3;" horiz-adv-x="1112" d="M88 0v252q76 0 112 42.5t36 139.5v180h-148v252h148v103q0 208 117 330t331 122h299v-260h-297q-97 0 -137.5 -41t-40.5 -141v-113h313v-252h-313v-125q0 -161 -82 -231h612v-258h-950z" />
<glyph unicode="&#xa7;" horiz-adv-x="1079" d="M68 715q0 72 35 136.5t108 109.5q-61 70 -61 186q3 137 113.5 226t287.5 89t281 -95t102 -249h-238q1 61 -42 94t-105 33q-66 0 -113.5 -25t-48.5 -73q0 -43 37.5 -64t132.5 -39q178 -37 236 -56q160 -54 202 -164q17 -45 17 -101q0 -154 -129 -236q61 -70 61 -184 q0 -146 -110 -239t-304 -93q-188 0 -302.5 103t-114.5 262h235q0 -62 52.5 -106t134.5 -44q84 0 131 28.5t47 74.5q0 32 -17 51t-66.5 35.5t-148.5 34.5q-98 17 -167.5 38.5t-128 56t-88 87t-29.5 123.5zM303 748q0 -51 59.5 -80t184.5 -47q19 -3 56 -10.5t56 -10.5 q123 25 123 96q0 19 -7.5 34.5t-25 27.5t-37 21t-53.5 17.5t-64.5 14.5t-78.5 14q-47 8 -92 21q-59 -15 -90 -41t-31 -57z" />
<glyph unicode="&#xa8;" horiz-adv-x="854" d="M121 1233v221h225v-221h-225zM506 1233v221h225v-221h-225z" />
<glyph unicode="&#xa9;" horiz-adv-x="1603" d="M61 717q0 150 58.5 287t158 236t237 157.5t288.5 58.5q150 0 287 -58.5t236 -157.5t157.5 -236t58.5 -287q0 -151 -58.5 -288.5t-157.5 -237t-236 -158t-287 -58.5q-202 0 -372.5 99.5t-270 270t-99.5 372.5zM264 717q0 -149 72.5 -275.5t196.5 -200t270 -73.5 t269.5 73.5t195 200t71.5 275.5t-71.5 275.5t-195 200t-269.5 73.5t-270 -73.5t-196.5 -200t-72.5 -275.5zM424 717q0 164 109.5 278.5t269.5 114.5q133 0 230 -78t130 -205h-209q-48 95 -151 95q-74 0 -126 -60t-52 -145t52 -145t126 -60q100 0 149 92h209 q-33 -125 -130.5 -203.5t-227.5 -78.5q-160 0 -269.5 115t-109.5 280z" />
<glyph unicode="&#xab;" horiz-adv-x="866" d="M47 512v203l324 278v-215l-205 -164l205 -168v-215zM481 512v203l324 278v-215l-205 -164l205 -168v-215z" />
<glyph unicode="&#xad;" horiz-adv-x="677" d="M61 442v252h555v-252h-555z" />
<glyph unicode="&#xae;" horiz-adv-x="1603" d="M61 717q0 150 58.5 287t158 236t237 157.5t288.5 58.5q150 0 287 -58.5t236 -157.5t157.5 -236t58.5 -287q0 -151 -58.5 -288.5t-157.5 -237t-236 -158t-287 -58.5q-202 0 -372.5 99.5t-270 270t-99.5 372.5zM264 717q0 -149 72.5 -275.5t196.5 -200t270 -73.5 t269.5 73.5t195 200t71.5 275.5q0 148 -71.5 274.5t-195 200.5t-269.5 74q-109 0 -209 -44t-172 -117.5t-115 -175t-43 -212.5zM524 358v756h361q130 0 201 -73t71 -197q0 -76 -36 -133.5t-99 -89.5l141 -263h-225l-111 222h-102v-222h-201zM725 758h147q39 0 59.5 23.5 t20.5 62.5q0 86 -80 86h-147v-172z" />
<glyph unicode="&#xaf;" horiz-adv-x="825" d="M82 1219v178h661v-178h-661z" />
<glyph unicode="&#xb0;" horiz-adv-x="755" d="M63 1104q0 129 92 221t222 92t222.5 -92t92.5 -221q0 -131 -92.5 -223.5t-222.5 -92.5t-222 92.5t-92 223.5zM219 1104q0 -66 46.5 -113t111.5 -47t111.5 47t46.5 113q0 64 -46.5 111t-111.5 47t-111.5 -47t-46.5 -111z" />
<glyph unicode="&#xb2;" horiz-adv-x="729" d="M20 541l334 391q75 87 97 131t22 98q0 42 -31.5 78.5t-95.5 36.5q-67 0 -102 -42t-35 -104h-168q0 138 87 226t218 88q126 0 210.5 -82.5t84.5 -200.5q0 -91 -36 -160t-128 -172l-121 -133h279v-155h-615z" />
<glyph unicode="&#xb3;" horiz-adv-x="763" d="M31 786h172q14 -44 55.5 -69t106.5 -25q73 0 117 43t44 115q0 73 -43.5 115.5t-120.5 48.5q-76 3 -155 -10l172 262h-291v155h592l-211 -293q104 -21 164.5 -93t60.5 -185q0 -142 -92.5 -235t-236.5 -93q-137 0 -228.5 77.5t-105.5 186.5z" />
<glyph unicode="&#xb4;" horiz-adv-x="854" d="M190 1192l191 289h303l-295 -289h-199z" />
<glyph unicode="&#xb6;" horiz-adv-x="1251" d="M51 963q0 212 123.5 335t345.5 123h600v-1421h-213v1217h-153v-1217h-213v508h-27q-209 0 -336 127.5t-127 327.5z" />
<glyph unicode="&#xb8;" horiz-adv-x="630" d="M82 -371l35 74q71 -39 134.5 -46.5t98.5 12.5t35 57q0 35 -27 54.5t-62.5 18t-70.5 -15.5l-78 47l84 170h134l-84 -123q38 17 84 17.5t87.5 -15t69 -54t27.5 -93.5q0 -86 -68.5 -135.5t-165.5 -49.5q-130 0 -233 82z" />
<glyph unicode="&#xb9;" horiz-adv-x="505" d="M57 1266v155h269v-880h-166v725h-103z" />
<glyph unicode="&#xbb;" horiz-adv-x="864" d="M59 231v215l205 168l-205 164v215l324 -278v-203zM494 231v215l204 168l-204 164v215l323 -278v-203z" />
<glyph unicode="&#xbc;" horiz-adv-x="1474" d="M57 1266v155h271v-880h-168v725h-103zM164 -25l833 1446h172l-835 -1446h-170zM780 180v148l344 553h197v-553h92v-148h-92v-180h-158v180h-383zM946 328h217v348z" />
<glyph unicode="&#xbd;" horiz-adv-x="1609" d="M57 1266v155h269v-880h-166v725h-103zM162 -25l835 1446h170l-833 -1446h-172zM903 0l332 391q76 90 98.5 133.5t22.5 96.5q0 41 -32.5 77.5t-96.5 36.5q-67 0 -102 -41.5t-35 -101.5h-168q0 136 88 223.5t217 87.5q126 0 210.5 -82t84.5 -200q0 -91 -35.5 -159.5 t-128.5 -172.5l-121 -133h281v-156h-615z" />
<glyph unicode="&#xbe;" horiz-adv-x="1734" d="M31 786h172q15 -44 57.5 -69t106.5 -25q73 0 117 43t44 115q0 73 -43.5 115.5t-122.5 48.5q-75 3 -153 -10l172 262h-293v155h594l-211 -293q104 -21 163.5 -93t59.5 -185q0 -141 -92.5 -234.5t-234.5 -93.5q-137 0 -229.5 77.5t-106.5 186.5zM422 -25l833 1446h172 l-835 -1446h-170zM1038 180v148l344 553h197v-553h94v-148h-94v-180h-158v180h-383zM1204 328h217v348z" />
<glyph unicode="&#xbf;" horiz-adv-x="1130" d="M94 391q0 117 62 200t178 159q70 48 99.5 95.5t29.5 112.5v48h250v-48q0 -77 -18.5 -138t-55.5 -107.5t-69 -74t-83 -63.5q-69 -51 -97 -91t-28 -93q0 -75 56 -121.5t151 -46.5q107 0 166.5 60.5t59.5 154.5h266q0 -208 -133 -336.5t-359 -128.5q-221 0 -348 116 t-127 302zM453 1161v269h272v-269h-272z" />
<glyph unicode="&#xc0;" d="M127 0v942q0 109 37 204.5t106 164.5q145 145 371 145q228 0 373 -145q69 -69 106 -164.5t37 -204.5v-942h-270v397h-490v-397h-270zM266 1829h303l191 -289h-199zM397 657h490v291q0 114 -65.5 179t-180.5 65q-114 0 -179 -65t-65 -179v-291z" />
<glyph unicode="&#xc1;" d="M127 0v942q0 109 37 204.5t106 164.5q145 145 371 145q228 0 373 -145q69 -69 106 -164.5t37 -204.5v-942h-270v397h-490v-397h-270zM397 657h490v291q0 114 -65.5 179t-180.5 65q-114 0 -179 -65t-65 -179v-291zM551 1540l190 289h303l-294 -289h-199z" />
<glyph unicode="&#xc2;" d="M127 0v942q0 109 37 204.5t106 164.5q145 145 371 145q228 0 373 -145q69 -69 106 -164.5t37 -204.5v-942h-270v397h-490v-397h-270zM301 1540l227 291h244l225 -291h-221l-127 170l-125 -170h-223zM397 657h490v291q0 114 -65.5 179t-180.5 65q-114 0 -179 -65t-65 -179 v-291z" />
<glyph unicode="&#xc3;" d="M127 0v942q0 109 37 204.5t106 164.5q145 145 371 145q228 0 373 -145q69 -69 106 -164.5t37 -204.5v-942h-270v397h-490v-397h-270zM313 1554q15 103 71.5 172.5t152.5 69.5q65 0 157 -38t125 -38q34 0 55 20.5t33 65.5h125q-13 -102 -68 -172.5t-145 -70.5 q-66 0 -160 37.5t-129 37.5q-72 0 -92 -84h-125zM397 657h490v291q0 114 -65.5 179t-180.5 65q-114 0 -179 -65t-65 -179v-291z" />
<glyph unicode="&#xc4;" d="M127 0v942q0 109 37 204.5t106 164.5q145 145 371 145q228 0 373 -145q69 -69 106 -164.5t37 -204.5v-942h-270v397h-490v-397h-270zM332 1563v227h252v-227h-252zM397 657h490v291q0 114 -65.5 179t-180.5 65q-114 0 -179 -65t-65 -179v-291zM717 1563v227h252v-227 h-252z" />
<glyph unicode="&#xc5;" d="M127 0v942q0 109 37 204.5t106 164.5q145 145 371 145q228 0 373 -145q69 -69 106 -164.5t37 -204.5v-942h-270v397h-490v-397h-270zM397 657h490v291q0 114 -65.5 179t-180.5 65q-114 0 -179 -65t-65 -179v-291zM436 1741q0 89 64 153t153 64q90 0 153.5 -63.5 t63.5 -153.5q0 -91 -63 -154t-154 -63q-90 0 -153.5 63.5t-63.5 153.5zM557 1741q0 -41 28 -71t68 -30q41 0 70 30t29 71t-29 70.5t-70 29.5q-40 0 -68 -29.5t-28 -70.5z" />
<glyph unicode="&#xc6;" horiz-adv-x="1923" d="M127 0v942q0 109 37 204.5t106 166.5q71 69 166.5 106t204.5 37q242 0 375 -166q103 131 317 131h504v-266h-502q-97 0 -137.5 -41t-40.5 -139v-131h565v-258h-565v-137q0 -99 41 -141t137 -42h508v-266h-510q-199 0 -314.5 107t-129.5 292h-492v-399h-270zM397 657h490 v291q0 114 -65.5 179t-180.5 65q-114 0 -179 -65t-65 -179v-291z" />
<glyph unicode="&#xc7;" horiz-adv-x="1449" d="M68 717q0 205 90.5 375t248.5 268t349 98q239 0 409.5 -126.5t237.5 -346.5h-293q-53 101 -144 161t-210 60q-114 0 -210.5 -66.5t-152 -179t-55.5 -243.5q0 -132 55.5 -245.5t152 -180t210.5 -66.5q117 0 208.5 62t145.5 164h291q-67 -216 -233.5 -344t-393.5 -132 l-67 -96q39 17 85.5 17t87.5 -15.5t69 -54.5t28 -94q0 -85 -69 -135t-167 -50q-128 0 -231 82l35 74q70 -39 133.5 -46t99 13t35.5 56q0 35 -27 54.5t-62.5 18t-70.5 -15.5l-80 47l76 154q-252 40 -416.5 246t-164.5 487z" />
<glyph unicode="&#xc8;" horiz-adv-x="1157" d="M127 453v516q0 208 116 330t332 122h502v-266h-499q-97 0 -139 -41t-42 -139v-137h576v-252h-576v-137q0 -98 42 -140.5t139 -42.5h499v-266h-502q-215 0 -331.5 122t-116.5 331zM326 1829h303l190 -289h-198z" />
<glyph unicode="&#xc9;" horiz-adv-x="1157" d="M127 453v516q0 208 116 330t332 122h502v-266h-499q-97 0 -139 -41t-42 -139v-137h576v-252h-576v-137q0 -98 42 -140.5t139 -42.5h499v-266h-502q-215 0 -331.5 122t-116.5 331zM526 1540l191 289h303l-295 -289h-199z" />
<glyph unicode="&#xca;" horiz-adv-x="1157" d="M127 453v516q0 208 116 330t332 122h502v-266h-499q-97 0 -139 -41t-42 -139v-137h576v-252h-576v-137q0 -98 42 -140.5t139 -42.5h499v-266h-502q-215 0 -331.5 122t-116.5 331zM362 1540l228 291h244l225 -291h-221l-127 170l-125 -170h-224z" />
<glyph unicode="&#xcb;" horiz-adv-x="1157" d="M127 453v516q0 208 116 330t332 122h502v-266h-499q-97 0 -139 -41t-42 -139v-137h576v-252h-576v-137q0 -98 42 -140.5t139 -42.5h499v-266h-502q-215 0 -331.5 122t-116.5 331zM360 1563v227h252v-227h-252zM745 1563v227h252v-227h-252z" />
<glyph unicode="&#xcc;" horiz-adv-x="542" d="M-94 1829h303l190 -289h-198zM137 0v1421h271v-1421h-271z" />
<glyph unicode="&#xcd;" horiz-adv-x="542" d="M137 0v1421h271v-1421h-271zM154 1540l190 289h303l-295 -289h-198z" />
<glyph unicode="&#xce;" horiz-adv-x="542" d="M-76 1540l228 291h243l226 -291h-222l-127 170l-125 -170h-223zM137 0v1421h271v-1421h-271z" />
<glyph unicode="&#xcf;" horiz-adv-x="542" d="M-39 1563v227h252v-227h-252zM137 0v1421h271v-1421h-271zM346 1563v227h252v-227h-252z" />
<glyph unicode="&#xd0;" horiz-adv-x="1415" d="M31 657v252h149v512h527q296 0 468.5 -191t172.5 -519q0 -325 -174.5 -518t-466.5 -193h-527v657h-149zM453 252h254q77 0 138.5 21.5t100.5 60t66.5 83.5t40.5 100.5t18.5 101t5.5 94.5q0 68 -9 128t-34 122t-64.5 106t-107 72t-155.5 28h-254v-260h333v-252h-333v-405z " />
<glyph unicode="&#xd1;" d="M127 0v942q0 109 37 204.5t106 164.5q145 145 371 145q228 0 373 -145q69 -69 106 -164.5t37 -204.5v-942h-270v948q0 114 -65.5 179t-180.5 65q-114 0 -179 -65t-65 -179v-948h-270zM330 1593q11 108 70 177t145 69q48 0 95.5 -23t89.5 -46t77 -23q71 0 100 86h113 q-12 -107 -72 -176.5t-145 -69.5q-48 0 -95.5 23t-89.5 46t-77 23q-72 0 -101 -86h-110z" />
<glyph unicode="&#xd2;" horiz-adv-x="1525" d="M68 717q0 204 89 373t249 267.5t358 98.5q197 0 356.5 -98.5t248.5 -267.5t89 -373q0 -205 -89 -374.5t-248.5 -268.5t-356.5 -99q-198 0 -358 99t-249 268.5t-89 374.5zM340 717q0 -200 124 -343t300 -143q174 0 298 143t124 343q0 198 -124 340.5t-298 142.5 q-116 0 -213.5 -65.5t-154 -176.5t-56.5 -241zM360 1829h304l190 -289h-199z" />
<glyph unicode="&#xd3;" horiz-adv-x="1525" d="M68 717q0 204 89 373t249 267.5t358 98.5q197 0 356.5 -98.5t248.5 -267.5t89 -373q0 -205 -89 -374.5t-248.5 -268.5t-356.5 -99q-198 0 -358 99t-249 268.5t-89 374.5zM340 717q0 -200 124 -343t300 -143q174 0 298 143t124 343q0 198 -124 340.5t-298 142.5 q-116 0 -213.5 -65.5t-154 -176.5t-56.5 -241zM659 1540l191 289h303l-295 -289h-199z" />
<glyph unicode="&#xd4;" horiz-adv-x="1525" d="M68 717q0 204 89 373t249 267.5t358 98.5q197 0 356.5 -98.5t248.5 -267.5t89 -373q0 -205 -89 -374.5t-248.5 -268.5t-356.5 -99q-198 0 -358 99t-249 268.5t-89 374.5zM340 717q0 -200 124 -343t300 -143q174 0 298 143t124 343q0 198 -124 340.5t-298 142.5 q-116 0 -213.5 -65.5t-154 -176.5t-56.5 -241zM416 1540l227 291h244l225 -291h-221l-127 170l-125 -170h-223z" />
<glyph unicode="&#xd5;" horiz-adv-x="1525" d="M68 717q0 204 89 373t249 267.5t358 98.5q197 0 356.5 -98.5t248.5 -267.5t89 -373q0 -205 -89 -374.5t-248.5 -268.5t-356.5 -99q-198 0 -358 99t-249 268.5t-89 374.5zM340 717q0 -200 124 -343t300 -143q174 0 298 143t124 343q0 198 -124 340.5t-298 142.5 q-116 0 -213.5 -65.5t-154 -176.5t-56.5 -241zM424 1554q15 103 71 172.5t152 69.5q65 0 157.5 -38t125.5 -38q34 0 55 20.5t33 65.5h125q-13 -102 -68 -172.5t-145 -70.5q-66 0 -160 37.5t-129 37.5q-72 0 -92 -84h-125z" />
<glyph unicode="&#xd6;" horiz-adv-x="1525" d="M68 717q0 204 89 373t249 267.5t358 98.5q197 0 356.5 -98.5t248.5 -267.5t89 -373q0 -205 -89 -374.5t-248.5 -268.5t-356.5 -99q-198 0 -358 99t-249 268.5t-89 374.5zM340 717q0 -200 124 -343t300 -143q174 0 298 143t124 343q0 198 -124 340.5t-298 142.5 q-116 0 -213.5 -65.5t-154 -176.5t-56.5 -241zM453 1563v227h252v-227h-252zM838 1563v227h252v-227h-252z" />
<glyph unicode="&#xd8;" horiz-adv-x="1525" d="M68 102l147 150q-145 197 -145 465q0 204 88.5 373t248 267.5t357.5 98.5q273 0 463 -180l143 143l105 -104l-150 -152q133 -198 133 -446q0 -205 -88.5 -374.5t-248 -268.5t-357.5 -99q-257 0 -447 166l-143 -145zM340 717q0 -143 72 -268l626 634q-117 117 -274 117 q-114 0 -212 -65t-155 -176.5t-57 -241.5zM506 334q118 -103 258 -103q114 0 212 65.5t155 177.5t57 243q0 132 -62 246z" />
<glyph unicode="&#xd9;" d="M127 489v932h270v-936q0 -115 65 -180t179 -65q116 0 181 65t65 180v936h270v-932q0 -224 -143 -370q-147 -144 -373 -144q-108 0 -204 37.5t-167 106.5q-143 146 -143 370zM256 1829h303l191 -289h-199z" />
<glyph unicode="&#xda;" d="M127 489v932h270v-936q0 -115 65 -180t179 -65q116 0 181 65t65 180v936h270v-932q0 -224 -143 -370q-147 -144 -373 -144q-108 0 -204 37.5t-167 106.5q-143 146 -143 370zM573 1540l191 289h303l-295 -289h-199z" />
<glyph unicode="&#xdb;" d="M127 489v932h270v-936q0 -115 65 -180t179 -65q116 0 181 65t65 180v936h270v-932q0 -224 -143 -370q-147 -144 -373 -144q-108 0 -204 37.5t-167 106.5q-143 146 -143 370zM309 1540l228 291h243l226 -291h-222l-127 170l-125 -170h-223z" />
<glyph unicode="&#xdc;" d="M127 489v932h270v-936q0 -115 65 -180t179 -65q116 0 181 65t65 180v936h270v-932q0 -224 -143 -370q-147 -144 -373 -144q-108 0 -204 37.5t-167 106.5q-143 146 -143 370zM332 1563v227h252v-227h-252zM717 1563v227h252v-227h-252z" />
<glyph unicode="&#xde;" horiz-adv-x="1249" d="M131 0v1421h270v-184h328q221 0 345 -124t124 -335q0 -202 -127.5 -329t-337.5 -127h-332v-322h-270zM401 571h326q96 0 148.5 51t52.5 156t-52.5 156t-148.5 51h-326v-414z" />
<glyph unicode="&#xdf;" horiz-adv-x="1208" d="M123 0v1059q0 192 133.5 328.5t335.5 136.5q204 0 334.5 -123.5t130.5 -298.5q0 -185 -135 -295q109 -49 167 -145.5t58 -221.5q0 -215 -126 -341t-335 -126q-101 0 -192 37v252q74 -31 176 -31q98 0 152.5 59.5t54.5 153.5q0 89 -60.5 144t-154.5 55h-168v252h118 q72 0 123 46.5t51 139.5q0 86 -51 136.5t-141 50.5q-87 0 -143 -61t-56 -156v-1051h-272z" />
<glyph unicode="&#xe0;" horiz-adv-x="1191" d="M63 322q0 69 23.5 122.5t61.5 87t96 57t117 34.5t135 18q75 7 123 14.5t92 20.5t65 35t21 53q0 43 -52.5 71.5t-140.5 28.5q-79 0 -146 -35t-85 -98h-271q21 153 156.5 251.5t339.5 98.5q88 0 160 -16t119 -40.5t82 -59t53.5 -67t29.5 -69.5t14 -61t3 -47v-549 q0 -81 31 -172h-248q-18 41 -27 98q-112 -118 -323 -118q-85 0 -161.5 21.5t-136.5 63t-95.5 108t-35.5 149.5zM266 1481h301l191 -289h-199zM336 319q0 -45 48.5 -72.5t129.5 -27.5q130 0 211.5 47.5t81.5 143.5v98q-75 -48 -256 -68q-108 -11 -161.5 -38.5t-53.5 -82.5z " />
<glyph unicode="&#xe1;" horiz-adv-x="1191" d="M63 322q0 69 23.5 122.5t61.5 87t96 57t117 34.5t135 18q75 7 123 14.5t92 20.5t65 35t21 53q0 43 -52.5 71.5t-140.5 28.5q-79 0 -146 -35t-85 -98h-271q21 153 156.5 251.5t339.5 98.5q88 0 160 -16t119 -40.5t82 -59t53.5 -67t29.5 -69.5t14 -61t3 -47v-549 q0 -81 31 -172h-248q-18 41 -27 98q-112 -118 -323 -118q-85 0 -161.5 21.5t-136.5 63t-95.5 108t-35.5 149.5zM336 319q0 -45 48.5 -72.5t129.5 -27.5q130 0 211.5 47.5t81.5 143.5v98q-75 -48 -256 -68q-108 -11 -161.5 -38.5t-53.5 -82.5zM444 1192l191 289h303 l-295 -289h-199z" />
<glyph unicode="&#xe2;" horiz-adv-x="1191" d="M63 322q0 69 23.5 122.5t61.5 87t96 57t117 34.5t135 18q75 7 123 14.5t92 20.5t65 35t21 53q0 43 -52.5 71.5t-140.5 28.5q-79 0 -146 -35t-85 -98h-271q21 153 156.5 251.5t339.5 98.5q88 0 160 -16t119 -40.5t82 -59t53.5 -67t29.5 -69.5t14 -61t3 -47v-549 q0 -81 31 -172h-248q-18 41 -27 98q-112 -118 -323 -118q-85 0 -161.5 21.5t-136.5 63t-95.5 108t-35.5 149.5zM250 1192l227 291h242l227 -291h-221l-127 170l-125 -170h-223zM336 319q0 -45 48.5 -72.5t129.5 -27.5q130 0 211.5 47.5t81.5 143.5v98q-75 -48 -256 -68 q-108 -11 -161.5 -38.5t-53.5 -82.5z" />
<glyph unicode="&#xe3;" horiz-adv-x="1191" d="M63 322q0 69 23.5 122.5t61.5 87t96 57t117 34.5t135 18q75 7 123 14.5t92 20.5t65 35t21 53q0 43 -52.5 71.5t-140.5 28.5q-79 0 -146 -35t-85 -98h-271q21 153 156.5 251.5t339.5 98.5q88 0 160 -16t119 -40.5t82 -59t53.5 -67t29.5 -69.5t14 -61t3 -47v-549 q0 -81 31 -172h-248q-18 41 -27 98q-112 -118 -323 -118q-85 0 -161.5 21.5t-136.5 63t-95.5 108t-35.5 149.5zM231 1206q15 103 72.5 173.5t153.5 70.5q65 0 156 -39t124 -39q35 0 55.5 20t32.5 66h127q-13 -103 -68.5 -173.5t-146.5 -70.5q-64 0 -157.5 38t-128.5 38 q-73 0 -93 -84h-127zM336 319q0 -45 48.5 -72.5t129.5 -27.5q130 0 211.5 47.5t81.5 143.5v98q-75 -48 -256 -68q-108 -11 -161.5 -38.5t-53.5 -82.5z" />
<glyph unicode="&#xe4;" horiz-adv-x="1191" d="M63 322q0 69 23.5 122.5t61.5 87t96 57t117 34.5t135 18q75 7 123 14.5t92 20.5t65 35t21 53q0 43 -52.5 71.5t-140.5 28.5q-79 0 -146 -35t-85 -98h-271q21 153 156.5 251.5t339.5 98.5q88 0 160 -16t119 -40.5t82 -59t53.5 -67t29.5 -69.5t14 -61t3 -47v-549 q0 -81 31 -172h-248q-18 41 -27 98q-112 -118 -323 -118q-85 0 -161.5 21.5t-136.5 63t-95.5 108t-35.5 149.5zM276 1212v228h250v-228h-250zM336 319q0 -45 48.5 -72.5t129.5 -27.5q130 0 211.5 47.5t81.5 143.5v98q-75 -48 -256 -68q-108 -11 -161.5 -38.5t-53.5 -82.5z M662 1212v228h249v-228h-249z" />
<glyph unicode="&#xe5;" horiz-adv-x="1191" d="M63 322q0 69 23.5 122.5t61.5 87t96 57t117 34.5t135 18q75 7 123 14.5t92 20.5t65 35t21 53q0 43 -52.5 71.5t-140.5 28.5q-79 0 -146 -35t-85 -98h-271q21 153 156.5 251.5t339.5 98.5q88 0 160 -16t119 -40.5t82 -59t53.5 -67t29.5 -69.5t14 -61t3 -47v-549 q0 -81 31 -172h-248q-18 41 -27 98q-112 -118 -323 -118q-85 0 -161.5 21.5t-136.5 63t-95.5 108t-35.5 149.5zM336 319q0 -45 48.5 -72.5t129.5 -27.5q130 0 211.5 47.5t81.5 143.5v98q-75 -48 -256 -68q-108 -11 -161.5 -38.5t-53.5 -82.5zM377 1397q0 90 63.5 153.5 t153.5 63.5q91 0 154 -63t63 -154q0 -90 -63.5 -153.5t-153.5 -63.5q-89 0 -153 64t-64 153zM498 1397q0 -41 28 -71t68 -30q41 0 69.5 29.5t28.5 71.5q0 43 -28.5 72.5t-69.5 29.5q-40 0 -68 -29.5t-28 -72.5z" />
<glyph unicode="&#xe7;" horiz-adv-x="1169" d="M61 524q0 152 69.5 279.5t195 202.5t280.5 75q191 0 327 -101.5t183 -279.5h-291q-31 55 -89 87t-130 32q-112 0 -191 -86.5t-79 -208.5q0 -119 79 -203.5t191 -84.5q74 0 132 32t89 88h289q-44 -176 -175.5 -277t-319.5 -106l-50 -79q34 15 74.5 11.5t75.5 -17.5 t58.5 -48.5t23.5 -81.5q0 -76 -51.5 -120t-137.5 -44q-52 0 -105 24.5t-91 62.5l37 63q58 -55 145 -55q37 0 61.5 17t24.5 48q0 28 -22.5 48t-59.5 20q-41 0 -72 -27l-73 49l69 136q-206 28 -336.5 181.5t-130.5 362.5z" />
<glyph unicode="&#xe8;" horiz-adv-x="1198" d="M61 526q0 150 73 278t197.5 202.5t270.5 74.5q117 0 219.5 -45t177 -127t111.5 -208.5t23 -278.5h-797q26 -97 97.5 -153t166.5 -56q71 0 131 31t92 92h289q-47 -164 -182 -262.5t-328 -98.5q-146 0 -270.5 73.5t-197.5 200.5t-73 277zM221 1481h301l191 -289h-199z M340 643h524q-25 92 -96 146.5t-168 54.5q-92 0 -161.5 -54t-98.5 -147z" />
<glyph unicode="&#xe9;" horiz-adv-x="1198" d="M61 526q0 150 73 278t197.5 202.5t270.5 74.5q117 0 219.5 -45t177 -127t111.5 -208.5t23 -278.5h-797q26 -97 97.5 -153t166.5 -56q71 0 131 31t92 92h289q-47 -164 -182 -262.5t-328 -98.5q-146 0 -270.5 73.5t-197.5 200.5t-73 277zM340 643h524q-25 92 -96 146.5 t-168 54.5q-92 0 -161.5 -54t-98.5 -147zM510 1192l190 289h304l-295 -289h-199z" />
<glyph unicode="&#xea;" horiz-adv-x="1198" d="M61 526q0 150 73 278t197.5 202.5t270.5 74.5q117 0 219.5 -45t177 -127t111.5 -208.5t23 -278.5h-797q26 -97 97.5 -153t166.5 -56q71 0 131 31t92 92h289q-47 -164 -182 -262.5t-328 -98.5q-146 0 -270.5 73.5t-197.5 200.5t-73 277zM252 1192l227 291h242l227 -291 h-221l-127 170l-125 -170h-223zM340 643h524q-25 92 -96 146.5t-168 54.5q-92 0 -161.5 -54t-98.5 -147z" />
<glyph unicode="&#xeb;" horiz-adv-x="1198" d="M61 526q0 150 73 278t197.5 202.5t270.5 74.5q117 0 219.5 -45t177 -127t111.5 -208.5t23 -278.5h-797q26 -97 97.5 -153t166.5 -56q71 0 131 31t92 92h289q-47 -164 -182 -262.5t-328 -98.5q-146 0 -270.5 73.5t-197.5 200.5t-73 277zM283 1212v228h249v-228h-249z M340 643h524q-25 92 -96 146.5t-168 54.5q-92 0 -161.5 -54t-98.5 -147zM668 1212v228h250v-228h-250z" />
<glyph unicode="&#xec;" horiz-adv-x="530" d="M-94 1481h301l190 -289h-198zM129 0v1055h270v-1055h-270z" />
<glyph unicode="&#xed;" horiz-adv-x="530" d="M129 0v1055h270v-1055h-270zM141 1192l191 289h303l-295 -289h-199z" />
<glyph unicode="&#xee;" horiz-adv-x="530" d="M-82 1192l227 291h242l227 -291h-221l-127 170l-125 -170h-223zM129 0v1055h270v-1055h-270z" />
<glyph unicode="&#xef;" horiz-adv-x="530" d="M-47 1212v228h250v-228h-250zM129 0v1055h270v-1055h-270zM338 1212v228h250v-228h-250z" />
<glyph unicode="&#xf0;" horiz-adv-x="1202" d="M68 512q0 102 30 191.5t80.5 153.5t115 110.5t134 69t137.5 22.5q94 0 172 -35q-78 114 -188 197l-152 -111l-112 70l155 112q-78 44 -141 64l201 151q76 -37 133 -73l127 94l112 -70l-135 -100q185 -154 283 -373t98 -459q0 -242 -152 -399.5t-372 -157.5 q-108 0 -205 42t-167.5 113.5t-112 172.5t-41.5 215zM336 512q0 -130 75 -214.5t183 -84.5t183 84.5t75 214.5q0 131 -75 217t-183 86t-183 -86t-75 -217z" />
<glyph unicode="&#xf1;" horiz-adv-x="1173" d="M115 0v610q0 204 131.5 337.5t343.5 133.5q218 0 343.5 -130t125.5 -341v-610h-271v616q0 22 -3 44t-15.5 52t-32.5 52t-58 37.5t-89 15.5q-90 0 -147.5 -56t-57.5 -145v-616h-270zM248 1206q15 103 72 173.5t153 70.5q65 0 156.5 -39t124.5 -39q35 0 55.5 20t32.5 66 h127q-13 -103 -68.5 -173.5t-146.5 -70.5q-64 0 -158 38t-129 38q-72 0 -92 -84h-127z" />
<glyph unicode="&#xf2;" horiz-adv-x="1185" d="M61 526q0 155 71.5 282.5t193 200t266.5 72.5t267 -72.5t193.5 -200.5t71.5 -282t-71.5 -281t-193.5 -198.5t-267 -71.5t-266.5 71.5t-193 198.5t-71.5 281zM207 1481h301l190 -289h-198zM332 524q0 -131 75.5 -216t184.5 -85t184.5 85t75.5 216q0 135 -75.5 222.5 t-184.5 87.5t-184.5 -87.5t-75.5 -222.5z" />
<glyph unicode="&#xf3;" horiz-adv-x="1185" d="M61 526q0 155 71.5 282.5t193 200t266.5 72.5t267 -72.5t193.5 -200.5t71.5 -282t-71.5 -281t-193.5 -198.5t-267 -71.5t-266.5 71.5t-193 198.5t-71.5 281zM332 524q0 -131 75.5 -216t184.5 -85t184.5 85t75.5 216q0 135 -75.5 222.5t-184.5 87.5t-184.5 -87.5 t-75.5 -222.5zM502 1192l190 289h303l-295 -289h-198z" />
<glyph unicode="&#xf4;" horiz-adv-x="1185" d="M61 526q0 155 71.5 282.5t193 200t266.5 72.5t267 -72.5t193.5 -200.5t71.5 -282t-71.5 -281t-193.5 -198.5t-267 -71.5t-266.5 71.5t-193 198.5t-71.5 281zM252 1192l227 291h242l227 -291h-221l-127 170l-125 -170h-223zM332 524q0 -131 75.5 -216t184.5 -85t184.5 85 t75.5 216q0 135 -75.5 222.5t-184.5 87.5t-184.5 -87.5t-75.5 -222.5z" />
<glyph unicode="&#xf5;" horiz-adv-x="1185" d="M61 526q0 155 71.5 282.5t193 200t266.5 72.5t267 -72.5t193.5 -200.5t71.5 -282t-71.5 -281t-193.5 -198.5t-267 -71.5t-266.5 71.5t-193 198.5t-71.5 281zM231 1206q15 103 72.5 173.5t153.5 70.5q65 0 156 -39t124 -39q35 0 55.5 20t32.5 66h127 q-13 -103 -68.5 -173.5t-146.5 -70.5q-64 0 -157.5 38t-128.5 38q-73 0 -93 -84h-127zM332 524q0 -131 75.5 -216t184.5 -85t184.5 85t75.5 216q0 135 -75.5 222.5t-184.5 87.5t-184.5 -87.5t-75.5 -222.5z" />
<glyph unicode="&#xf6;" horiz-adv-x="1185" d="M61 526q0 155 71.5 282.5t193 200t266.5 72.5t267 -72.5t193.5 -200.5t71.5 -282t-71.5 -281t-193.5 -198.5t-267 -71.5t-266.5 71.5t-193 198.5t-71.5 281zM276 1212v228h250v-228h-250zM332 524q0 -131 75.5 -216t184.5 -85t184.5 85t75.5 216q0 135 -75.5 222.5 t-184.5 87.5t-184.5 -87.5t-75.5 -222.5zM662 1212v228h249v-228h-249z" />
<glyph unicode="&#xf9;" horiz-adv-x="1173" d="M115 446v609h270v-617q0 -22 3.5 -44t15.5 -51.5t32.5 -51.5t58.5 -37.5t89 -15.5q89 0 146.5 56t57.5 144v617h271v-609q0 -204 -131.5 -337.5t-343.5 -133.5q-218 0 -343.5 130t-125.5 341zM213 1481h301l191 -289h-199z" />
<glyph unicode="&#xfa;" horiz-adv-x="1173" d="M115 446v609h270v-617q0 -22 3.5 -44t15.5 -51.5t32.5 -51.5t58.5 -37.5t89 -15.5q89 0 146.5 56t57.5 144v617h271v-609q0 -204 -131.5 -337.5t-343.5 -133.5q-218 0 -343.5 130t-125.5 341zM502 1192l190 289h303l-295 -289h-198z" />
<glyph unicode="&#xfb;" horiz-adv-x="1173" d="M115 446v609h270v-617q0 -22 3.5 -44t15.5 -51.5t32.5 -51.5t58.5 -37.5t89 -15.5q89 0 146.5 56t57.5 144v617h271v-609q0 -204 -131.5 -337.5t-343.5 -133.5q-218 0 -343.5 130t-125.5 341zM238 1192l227 291h242l227 -291h-221l-127 170l-125 -170h-223z" />
<glyph unicode="&#xfc;" horiz-adv-x="1173" d="M115 446v609h270v-617q0 -22 3.5 -44t15.5 -51.5t32.5 -51.5t58.5 -37.5t89 -15.5q89 0 146.5 56t57.5 144v617h271v-609q0 -204 -131.5 -337.5t-343.5 -133.5q-218 0 -343.5 130t-125.5 341zM274 1212v228h250v-228h-250zM659 1212v228h250v-228h-250z" />
<glyph unicode="&#xfd;" horiz-adv-x="1173" d="M115 438v617h270v-617q0 -22 3.5 -44t15.5 -51.5t32.5 -51.5t58.5 -37.5t89 -15.5q90 0 147 55.5t57 144.5v617h271v-1098q0 -211 -131 -342t-340 -131q-174 0 -302.5 103.5t-156.5 265.5h281q15 -51 62 -80t116 -29q102 0 151 60.5t49 144.5v112q-103 -86 -243 -86 q-194 0 -312 127t-118 336zM471 1233l191 295h294l-284 -295h-201z" />
<glyph unicode="&#xff;" horiz-adv-x="1171" d="M115 438v617h270v-617q0 -22 3.5 -44.5t15.5 -53.5t32 -53.5t58 -39t88 -16.5q90 0 147 58.5t57 148.5v617h271v-1098q0 -214 -128.5 -343.5t-340.5 -129.5q-174 0 -302.5 103.5t-156.5 265.5h281q12 -57 59.5 -87t118.5 -30q102 0 150 59.5t48 143.5v122 q-102 -86 -241 -86q-193 0 -311.5 128t-118.5 335zM264 1212v228h250v-228h-250zM649 1212v228h250v-228h-250z" />
<glyph unicode="&#x152;" horiz-adv-x="2224" d="M68 717q0 204 88.5 373t248.5 267.5t359 98.5q300 0 489 -221q114 186 381 186h502v-266h-502q-97 0 -136.5 -41t-39.5 -139v-131h565v-258h-565v-137q0 -99 40 -141t136 -42h510v-266h-510q-271 0 -385 195q-191 -220 -485 -220q-199 0 -359 99t-248.5 268.5 t-88.5 374.5zM338 717q0 -130 57 -242t155 -178t214 -66q114 0 211.5 65.5t154 177t58.5 241.5q-3 200 -126.5 342.5t-297.5 142.5q-176 0 -301 -142t-125 -341z" />
<glyph unicode="&#x153;" horiz-adv-x="1970" d="M61 524q0 113 42 216t113 178t169.5 119t206.5 44q120 0 220 -50.5t167 -141.5q75 91 179 141.5t222 50.5q197 0 343 -118.5t182 -327.5l-742 -309q79 -105 215 -105q70 0 129 29.5t97 85.5h286q-51 -165 -189 -264t-319 -99q-118 0 -223 51t-178 140 q-69 -90 -169.5 -140.5t-219.5 -50.5q-144 0 -266.5 74t-193.5 201t-71 276zM332 524q0 -118 76.5 -202t183.5 -84q109 0 185.5 83.5t76.5 202.5q0 122 -76.5 208.5t-185.5 86.5q-107 0 -183.5 -86.5t-76.5 -208.5zM1102 553l481 201q-70 82 -205 82q-110 0 -188.5 -78 t-87.5 -205z" />
<glyph unicode="&#x178;" horiz-adv-x="1255" d="M113 1028v393h272v-399q0 -116 64.5 -180t179.5 -64q114 0 178.5 64.5t64.5 179.5v399h271v-393q0 -110 -37.5 -206t-106.5 -165q-99 -99 -235 -129v-528h-272v528q-138 31 -236 129q-69 69 -106 165t-37 206zM322 1563v227h251v-227h-251zM707 1563v227h251v-227h-251z " />
<glyph unicode="&#x2c6;" horiz-adv-x="854" d="M74 1192l227 291h242l227 -291h-221l-127 170l-125 -170h-223z" />
<glyph unicode="&#x2dc;" horiz-adv-x="854" d="M63 1206q15 103 72.5 173.5t153.5 70.5q65 0 156 -39t124 -39q35 0 55.5 20t32.5 66h127q-13 -103 -68.5 -173.5t-146.5 -70.5q-64 0 -157.5 38t-128.5 38q-73 0 -93 -84h-127z" />
<glyph unicode="&#x2000;" horiz-adv-x="979" />
<glyph unicode="&#x2001;" horiz-adv-x="1958" />
<glyph unicode="&#x2002;" horiz-adv-x="979" />
<glyph unicode="&#x2003;" horiz-adv-x="1958" />
<glyph unicode="&#x2004;" horiz-adv-x="652" />
<glyph unicode="&#x2005;" horiz-adv-x="489" />
<glyph unicode="&#x2006;" horiz-adv-x="326" />
<glyph unicode="&#x2007;" horiz-adv-x="326" />
<glyph unicode="&#x2008;" horiz-adv-x="244" />
<glyph unicode="&#x2009;" horiz-adv-x="391" />
<glyph unicode="&#x200a;" horiz-adv-x="108" />
<glyph unicode="&#x2010;" horiz-adv-x="677" d="M61 442v252h555v-252h-555z" />
<glyph unicode="&#x2011;" horiz-adv-x="677" d="M61 442v252h555v-252h-555z" />
<glyph unicode="&#x2012;" horiz-adv-x="677" d="M61 442v252h555v-252h-555z" />
<glyph unicode="&#x2013;" horiz-adv-x="1241" d="M63 442v252h1115v-252h-1115z" />
<glyph unicode="&#x2014;" horiz-adv-x="1947" d="M63 442v252h1821v-252h-1821z" />
<glyph unicode="&#x2018;" horiz-adv-x="415" d="M70 862v277q0 126 68 199t181 85v-114q-118 -27 -118 -164v-25h145v-258h-276z" />
<glyph unicode="&#x2019;" horiz-adv-x="415" d="M70 1163v258h276v-276q0 -125 -68.5 -198.5t-181.5 -84.5v115q59 12 89 55t30 109v22h-145z" />
<glyph unicode="&#x201a;" horiz-adv-x="409" d="M70 0v268h270v-299q0 -128 -67.5 -191.5t-178.5 -60.5v99q59 3 90 42t31 105v37h-145z" />
<glyph unicode="&#x201c;" horiz-adv-x="872" d="M70 862v277q0 126 68 199t181 85v-114q-118 -27 -118 -164v-25h145v-258h-276zM526 862v277q0 126 68.5 198.5t181.5 85.5v-114q-119 -27 -119 -164v-25h146v-258h-277z" />
<glyph unicode="&#x201d;" horiz-adv-x="872" d="M70 1163v258h276v-276q0 -125 -68.5 -198.5t-181.5 -84.5v115q59 12 89 55t30 109v22h-145zM526 1163v258h277v-276q0 -125 -68.5 -198.5t-181.5 -84.5v115q59 12 89 55t30 109v22h-146z" />
<glyph unicode="&#x201e;" horiz-adv-x="866" d="M70 0v268h270v-299q0 -129 -67 -192t-179 -60v99q60 3 91.5 42t31.5 105v37h-147zM526 0v268h271v-299q0 -128 -67.5 -191.5t-178.5 -60.5v99q59 3 90 42t31 105v37h-146z" />
<glyph unicode="&#x2022;" horiz-adv-x="641" d="M102 748q0 90 64 153.5t156 63.5q89 0 153 -64t64 -153q0 -92 -63.5 -156t-153.5 -64q-92 0 -156 64t-64 156z" />
<glyph unicode="&#x2026;" horiz-adv-x="1769" d="M94 0v289h291v-289h-291zM739 0v289h291v-289h-291zM1384 0v289h291v-289h-291z" />
<glyph unicode="&#x202f;" horiz-adv-x="391" />
<glyph unicode="&#x2039;" horiz-adv-x="430" d="M47 512v203l324 278v-215l-205 -164l205 -168v-215z" />
<glyph unicode="&#x203a;" horiz-adv-x="430" d="M59 231v215l205 168l-205 164v215l326 -278v-203z" />
<glyph unicode="&#x205f;" horiz-adv-x="489" />
<glyph unicode="&#x20ac;" horiz-adv-x="1343" d="M51 434v154h121q-4 46 -4 71q0 8 1 25.5t1 26.5h-119v151h148q62 201 228.5 327t381.5 126q296 0 475 -203l-115 -184q-55 80 -146 127t-206 47q-123 0 -220 -65t-148 -175h681l-94 -151h-628q-2 -16 -2 -52q0 -25 4 -71h551l-95 -154h-411q48 -102 135.5 -161.5 t195.5 -59.5q97 0 165 33.5t118 103.5h254q-70 -166 -207.5 -258t-329.5 -92q-202 0 -359.5 120t-221.5 314h-154z" />
<glyph unicode="&#x2122;" horiz-adv-x="1884" d="M72 1231v190h649v-190h-223v-703h-203v703h-223zM825 528v893h260l218 -649l219 649h260v-893h-195v541l-178 -541h-213l-176 539v-539h-195z" />
<glyph unicode="&#x25fc;" horiz-adv-x="1054" d="M0 0v1055h1055v-1055h-1055z" />
<glyph unicode="&#xfb01;" horiz-adv-x="1130" d="M115 0v1040q0 219 126 348.5t347 104.5v-242q-101 6 -151.5 -42t-51.5 -156h616v-1053h-270v793h-346v-793h-270zM729 1169v152q0 57 40 96t97 39q56 0 95.5 -39t39.5 -96v-152h-272z" />
<glyph unicode="&#xfb02;" horiz-adv-x="1230" d="M115 0v1040q0 219 126 348.5t347 104.5v-242q-101 6 -151.5 -42t-51.5 -156h190v-260h-190v-793h-270zM737 442v1082h273v-1082q0 -110 49 -155t151 -39v-246q-226 -24 -349.5 96.5t-123.5 343.5z" />
</font>
</defs>
</svg>
